<?xml version="1.0" encoding="UTF-8"?>
<svg version="1.1" xmlns="http://www.w3.org/2000/svg" width="674" height="299">
<path d="M0 0 C30 0 30 0 38.375 7.875 C41.44921875 12.60546875 41.44921875 12.60546875 42.77880859 14.91943359 C44.33440908 17.56973893 46.19706361 19.85158352 48.1875 22.1875 C51.69749149 26.59920905 55.17344959 31.03770877 58.65087891 35.47509766 C62.09241664 39.86113974 65.5712614 44.21596679 69.0625 48.5625 C76.27047883 57.54772487 83.3027182 66.62380548 90 76 C90.33 50.92 90.66 25.84 91 0 C101.89 0 112.78 0 124 0 C124 42.9 124 85.8 124 130 C94 130 94 130 86.3125 122.875 C84.59082031 120.48168945 84.59082031 120.48168945 83.515625 118.42578125 C81.20843084 114.28656081 78.55844178 110.72170643 75.5625 107.0625 C74.67005616 105.92460124 73.77946259 104.78524916 72.890625 103.64453125 C69.00180943 98.70988064 64.98663255 93.87903512 60.98291016 89.03759766 C57.32989253 84.61955016 53.71637937 80.17469327 50.1484375 75.6875 C47.13847321 71.9223083 44.1010258 68.17965845 41.0625 64.4375 C40.48169678 63.72134521 39.90089355 63.00519043 39.30249023 62.26733398 C38.76052002 61.60032471 38.2185498 60.93331543 37.66015625 60.24609375 C36.92744507 59.34395142 36.92744507 59.34395142 36.17993164 58.42358398 C35.06749589 57.03643631 35.06749589 57.03643631 34 56 C33.67 80.42 33.34 104.84 33 130 C22.11 130 11.22 130 0 130 C0 87.1 0 44.2 0 0 Z " fill="#414D51" transform="translate(59,90)"/>
<path d="M0 0 C10.89 0 21.78 0 33 0 C40.06801739 13.85331408 46.61595817 27.9375597 53.16210938 42.04199219 C55.77416129 47.66908848 58.39544211 53.29187526 61.01843262 58.91387939 C61.58997223 60.13902021 62.16134239 61.3642401 62.73254395 62.58953857 C66.18975265 70.00542991 69.66259198 77.41370445 73.15625 84.8125 C85.64013675 111.25298454 85.64013675 111.25298454 90 121 C90.3201709 121.71124023 90.6403418 122.42248047 90.97021484 123.15527344 C93 127.75141304 93 127.75141304 93 130 C81.45 130 69.9 130 58 130 C55.2775 123.626875 55.2775 123.626875 52.5 117.125 C51.63858398 115.11623779 51.63858398 115.11623779 50.75976562 113.06689453 C50.31310547 112.01614746 49.86644531 110.96540039 49.40625 109.8828125 C48.94541016 108.80402832 48.48457031 107.72524414 48.00976562 106.61376953 C47 104 47 104 47 102 C46.08935791 102.03029297 45.17871582 102.06058594 44.24047852 102.09179688 C10.83364427 103.19008061 10.83364427 103.19008061 -3 103 C-0.36984502 94.33596007 3.31941187 86.26396204 7 78 C16.24 78 25.48 78 35 78 C32.9397034 73.01838731 30.87762485 68.03758849 28.81103516 63.05859375 C28.10979718 61.36761951 27.40958323 59.67622021 26.71044922 57.984375 C25.70034047 55.54051703 24.68645299 53.09825537 23.671875 50.65625 C23.36441345 49.91008423 23.0569519 49.16391846 22.74017334 48.3951416 C20.69352618 43.48236399 18.42511242 38.73786441 16 34 C15.67198395 34.7675914 15.67198395 34.7675914 15.33734131 35.5506897 C5.29933261 59.03725097 -4.75727061 82.51579212 -14.9251709 105.94647217 C-15.80887367 107.98327147 -16.6917668 110.02042224 -17.57385254 112.05792236 C-18.8020043 114.89384804 -20.03329829 117.72838649 -21.265625 120.5625 C-21.63131592 121.40807465 -21.99700684 122.25364929 -22.3737793 123.12484741 C-24.88532134 128.88532134 -24.88532134 128.88532134 -26 130 C-28.52094076 130.08847743 -31.01430893 130.11527301 -33.53515625 130.09765625 C-34.66503212 130.09553383 -34.66503212 130.09553383 -35.81773376 130.09336853 C-38.2326956 130.08775376 -40.64756601 130.07519883 -43.0625 130.0625 C-44.69596221 130.0574869 -46.32942586 130.05292366 -47.96289062 130.04882812 C-51.97529585 130.03777954 -55.98763241 130.02050506 -60 130 C-58.5290275 125.23112748 -56.58640383 120.78582434 -54.4296875 116.296875 C-54.07669083 115.55483322 -53.72369415 114.81279144 -53.36000061 114.04826355 C-52.59899955 112.44949791 -51.8364411 110.85147283 -51.07247925 109.25411987 C-49.85436619 106.70685142 -48.64057272 104.15756587 -47.42797852 101.60766602 C-45.75892152 98.09810345 -44.08866675 94.58911552 -42.41748047 91.08056641 C-38.90732324 83.7074802 -35.41688659 76.32515152 -31.9375 68.9375 C-31.6169162 68.25702606 -31.2963324 67.57655212 -30.96603394 66.87545776 C-24.84305422 53.86966491 -18.8289701 40.81436037 -12.84545898 27.74389648 C-12.17695085 26.28367754 -11.50841307 24.82347218 -10.83984375 23.36328125 C-10.52011093 22.66494675 -10.20037811 21.96661224 -9.87095642 21.24711609 C-6.61650111 14.14787738 -3.31059563 7.07322318 0 0 Z " fill="#404D51" transform="translate(541,90)"/>
<path d="M0 0 C11.88 0 23.76 0 36 0 C45.74730196 20.97401142 55.48482272 41.95088781 65.01391602 63.02514648 C68.94493208 71.71413596 72.94972344 80.36603311 77 89 C79.13220461 85.80169309 80.78621301 82.48465694 82.45703125 79.03515625 C82.96594406 77.99018478 82.96594406 77.99018478 83.48513794 76.92410278 C84.59698178 74.63821295 85.70505329 72.35052305 86.8125 70.0625 C87.19238068 69.27912262 87.57226135 68.49574524 87.96365356 67.68862915 C97.62269896 47.76175687 106.95509231 27.68799245 116.01928711 7.4831543 C116.39964111 6.63922119 116.77999512 5.79528809 117.171875 4.92578125 C117.6683252 3.81843628 117.6683252 3.81843628 118.17480469 2.6887207 C119 1 119 1 120 0 C122.44830426 -0.08843793 124.86820599 -0.11528752 127.31640625 -0.09765625 C128.04746078 -0.0962413 128.77851532 -0.09482635 129.53172302 -0.09336853 C131.87535632 -0.08775408 134.21889539 -0.07519922 136.5625 -0.0625 C138.14778508 -0.05748686 139.73307166 -0.05292363 141.31835938 -0.04882812 C145.2122761 -0.03777997 149.10612205 -0.02050572 153 0 C150.01101659 7.78296669 146.60178436 15.32877809 143.0625 22.875 C142.48507475 24.11119887 141.90793264 25.34753002 141.33105469 26.58398438 C140.13919256 29.13816818 138.94613515 31.69178894 137.75244141 34.24511719 C136.11228356 37.75615225 134.48238841 41.27187103 132.85546875 44.7890625 C126.41913753 58.70161184 119.90445917 72.57490967 113.34631348 86.43035889 C107.12913156 99.5682441 100.99964973 112.74372804 94.9453125 125.95751953 C94.31721468 127.31461312 93.66876153 128.66247695 93 130 C82.11 130 71.22 130 60 130 C51.71006261 112.43122405 43.44122579 94.85473781 35.3203125 77.20703125 C31.497885 68.90193877 27.65297887 60.60727854 23.8081665 52.31253052 C22.57218821 49.64590235 21.33660236 46.97909262 20.10107422 44.31225586 C16.37193866 36.2644739 12.6386232 28.21870392 8.890625 20.1796875 C8.27397989 18.85596973 7.65736109 17.53223971 7.04077148 16.20849609 C5.91477141 13.7911626 4.78631794 11.37502695 3.65649414 8.95947266 C2.92354126 7.38625244 2.92354126 7.38625244 2.17578125 5.78125 C1.75208252 4.87439453 1.32838379 3.96753906 0.8918457 3.03320312 C0 1 0 1 0 0 Z " fill="#414E53" transform="translate(351,90)"/>
<path d="M0 0 C17.91327627 8.12560985 30.31461885 19.80987233 38 38 C43.96447917 54.11725071 43.89905735 72.71347522 37.5234375 88.703125 C29.98579915 104.60444426 17.74398062 118.36846991 0.98144531 124.77099609 C-7.27335689 127.64182024 -15.38425995 130.12350877 -24.18359375 130.1328125 C-25.35857422 130.13410156 -26.53355469 130.13539063 -27.74414062 130.13671875 C-28.96294922 130.13285156 -30.18175781 130.12898437 -31.4375 130.125 C-32.65244141 130.12886719 -33.86738281 130.13273438 -35.11914062 130.13671875 C-36.29541016 130.13542969 -37.47167969 130.13414062 -38.68359375 130.1328125 C-39.75150146 130.13168457 -40.81940918 130.13055664 -41.91967773 130.12939453 C-45.02138449 129.99910171 -47.95209459 129.57524895 -51 129 C-49.60159108 124.90045384 -47.66787138 122.10653123 -44.875 118.8125 C-43.68003906 117.38744141 -43.68003906 117.38744141 -42.4609375 115.93359375 C-41.64882813 114.96550781 -40.83671875 113.99742187 -40 113 C-38.49448009 111.12942928 -36.99407254 109.25472664 -35.5 107.375 C-31.25301146 102.03255806 -31.25301146 102.03255806 -28.48046875 101.67578125 C-27.39378906 101.55589844 -26.30710937 101.43601562 -25.1875 101.3125 C-14.66642154 99.72049471 -6.38458583 95.69929794 0.37890625 87.375 C7.73342746 76.60018338 8.1797467 64.66193651 7 52 C4.88473767 43.35660049 0.12835024 34.58462322 -7.375 29.5 C-8.24125 29.005 -9.1075 28.51 -10 28 C-8.37991304 21.29227152 -6.29618975 14.82957639 -3.875 8.375 C-3.60929199 7.66408203 -3.34358398 6.95316406 -3.06982422 6.22070312 C-1.13281863 1.13281863 -1.13281863 1.13281863 0 0 Z " fill="#404D52" transform="translate(311,93)"/>
<path d="M0 0 C1.10879517 0.00290039 1.10879517 0.00290039 2.23999023 0.00585938 C7.41016154 0.04677972 12.44065081 0.38000375 17.5625 1.125 C16.96827253 4.22259573 16.05213237 6.09055334 14.05078125 8.515625 C13.54353516 9.13928955 13.03628906 9.7629541 12.51367188 10.40551758 C11.97291016 11.05544678 11.43214844 11.70537598 10.875 12.375 C7.50048382 16.45188411 4.32206692 20.41047632 1.5625 24.9375 C-0.22562415 27.37917829 -1.0793207 28.02765698 -4.0390625 28.83203125 C-6.09099719 29.11569664 -8.14757441 29.36726891 -10.20703125 29.58984375 C-18.90482945 31.03071238 -27.19311748 36.02965895 -32.4375 43.125 C-39.59186524 54.64084993 -41.17933167 67.03543273 -38.3125 80.25 C-35.57244717 89.98674585 -31.03843519 96.75487295 -22.4375 102.125 C-23.05816727 105.63466963 -23.97080332 108.81227261 -25.25 112.13671875 C-25.60320312 113.05904297 -25.95640625 113.98136719 -26.3203125 114.93164062 C-26.68898437 115.88232422 -27.05765625 116.83300781 -27.4375 117.8125 C-27.80617187 118.77478516 -28.17484375 119.73707031 -28.5546875 120.72851562 C-31.27113412 127.79226824 -31.27113412 127.79226824 -32.4375 130.125 C-47.50289218 125.66778338 -59.00879588 113.6807826 -66.74609375 100.44140625 C-74.59453567 85.05265985 -76.32118386 65.14395098 -71.8125 48.4375 C-71.07561233 46.31352965 -70.28572629 44.20701 -69.4375 42.125 C-69.03660156 41.10535156 -68.63570312 40.08570313 -68.22265625 39.03515625 C-61.19310886 23.20339299 -47.30000253 12.18827308 -31.7109375 5.375 C-21.42639571 1.44772867 -10.9522054 -0.06983075 0 0 Z " fill="#414D52" transform="translate(278.4375,86.875)"/>
<path d="M0 0 C0.93532206 -0.00085442 1.87064412 -0.00170885 2.83430928 -0.00258917 C5.96965236 -0.00423681 9.10494199 0.00126573 12.24028015 0.00672913 C14.4872945 0.00701118 16.73430895 0.00685291 18.98132324 0.00628662 C25.08414637 0.00599935 31.18694989 0.01188479 37.28976846 0.01886058 C43.66659715 0.02510576 50.04342629 0.02569884 56.42025757 0.02688599 C67.12426635 0.02964238 77.82826739 0.03589143 88.53227234 0.04481506 C99.55668604 0.05399625 110.58109778 0.06107363 121.60551453 0.06532288 C122.62509659 0.06571696 122.62509659 0.06571696 123.66527627 0.06611901 C127.07529133 0.06742406 130.4853064 0.06868776 133.89532149 0.06993091 C162.17787451 0.08029501 190.46041972 0.09798032 218.7429657 0.12025452 C218.7429657 2.10025452 218.7429657 4.08025452 218.7429657 6.12025452 C217.56774699 6.12172108 216.39252829 6.12318764 215.18169689 6.12469864 C187.25532051 6.16043637 159.32904377 6.21672905 131.40276216 6.29817547 C127.96204592 6.30819237 124.52132922 6.31803659 121.08061218 6.32777405 C120.05317821 6.33068611 120.05317821 6.33068611 119.00498799 6.333657 C107.92879768 6.36463894 96.85262807 6.381647 85.77640262 6.39344874 C74.40271202 6.40588007 63.02914864 6.43372162 51.65551883 6.47486758 C45.27066183 6.49748092 38.88595917 6.51316525 32.50105858 6.51213837 C26.48705664 6.5113917 20.47339585 6.52934581 14.45948219 6.56142235 C12.25652752 6.56991625 10.05353456 6.57167477 7.85057068 6.56605721 C-11.35360424 6.20651457 -11.35360424 6.20651457 -27.6945343 15.29994202 C-37.72715293 26.98794272 -37.55605671 39.75814031 -37.5316925 54.40492249 C-37.5360462 56.14060179 -37.54123153 57.87627917 -37.54718018 59.61195374 C-37.56051059 64.30212222 -37.56115551 68.99220983 -37.55861688 73.68239355 C-37.55754312 77.60858937 -37.56244084 81.5347691 -37.5672223 85.46096146 C-37.57829686 94.72907803 -37.57876643 103.99715407 -37.57270813 113.26527405 C-37.56666936 122.80264664 -37.57898164 132.33987166 -37.6002782 141.87721908 C-37.61793371 150.08816554 -37.62388934 158.29906519 -37.62064046 166.51002991 C-37.61883377 171.40415154 -37.62140217 176.29816788 -37.635355 181.19227219 C-37.6479932 185.79707191 -37.64593294 190.40164272 -37.63294411 195.00643921 C-37.63059178 196.68814295 -37.63326432 198.36986311 -37.64156723 200.051548 C-37.70034028 212.88965902 -37.58198882 225.3153391 -28.2570343 235.12025452 C-19.72673825 243.46098844 -11.31225406 244.71307917 0.24906921 244.66615295 C1.59029327 244.6749032 2.93150692 244.68539401 4.27270508 244.69747925 C7.88784347 244.72518288 11.50263862 244.72874743 15.11786771 244.72775936 C18.90556988 244.73090203 22.6931205 244.75654822 26.48074341 244.77973938 C33.64155034 244.82019975 40.80226643 244.84061654 47.96316999 244.85371327 C56.12049935 244.86961722 64.27767487 244.90804701 72.43491471 244.94830656 C89.20422072 245.03056902 105.9734941 245.08474624 122.7429657 245.12025452 C123.12515337 246.77640109 123.45691672 248.44482476 123.7429657 250.12025452 C122.05104453 251.81217569 119.92090246 251.25361873 117.60284424 251.26069641 C116.48842453 251.26640656 115.37400482 251.2721167 114.22581482 251.27799988 C112.37527496 251.27967667 112.37527496 251.27967667 110.48735046 251.28138733 C109.19628891 251.28635223 107.90522736 251.29131714 106.57504272 251.2964325 C103.02082537 251.30958592 99.46662694 251.3160084 95.91238904 251.32044315 C93.68995169 251.32337216 91.46751951 251.32747688 89.24508476 251.33194733 C82.28681415 251.34563663 75.32855537 251.35529344 68.37027222 251.35914922 C60.34858589 251.3636187 52.32707092 251.38110864 44.30543667 251.41014981 C38.10148637 251.43182624 31.89758404 251.44185684 25.6935963 251.44319034 C21.99098217 251.4442351 18.28852878 251.4500711 14.58595467 251.46800995 C10.44490975 251.4876798 6.30421835 251.48317803 2.16313171 251.47669983 C0.94765656 251.48591461 -0.2678186 251.49512939 -1.52012634 251.50462341 C-12.24188628 251.45223596 -20.49778602 249.34030498 -29.2570343 243.12025452 C-30.1232843 242.56337952 -30.9895343 242.00650452 -31.8820343 241.43275452 C-40.01252071 233.51622827 -43.46202965 223.09538414 -43.64471436 211.98150635 C-43.67653739 208.66448699 -43.67041202 205.34826479 -43.66108704 202.03114319 C-43.66679568 200.19708847 -43.67376185 198.36303731 -43.68188477 196.5289917 C-43.69977877 191.56601575 -43.6986546 186.60321698 -43.69294238 181.6402185 C-43.68984443 177.48790166 -43.69594987 173.33561855 -43.70198113 169.18330652 C-43.71601304 159.38158012 -43.71447677 149.57994089 -43.70307922 139.7782135 C-43.69160515 129.68811877 -43.70566483 119.59829006 -43.7324757 109.50823039 C-43.75467658 100.82596097 -43.76126002 92.14377478 -43.75539929 83.46147901 C-43.7520383 78.2845083 -43.75438729 73.107708 -43.77165031 67.93076134 C-43.78718693 63.05916441 -43.78308975 58.18795946 -43.76434517 53.31637764 C-43.76067751 51.53631029 -43.76371409 49.75621346 -43.77423096 47.9761734 C-43.85117949 33.86649005 -42.58554388 21.74446784 -32.2570343 11.12025452 C-23.00513177 2.52233262 -12.27765709 -0.04098558 0 0 Z " fill="#F4923B" transform="translate(61.25703430175781,37.87974548339844)"/>
<path d="M0 0 C28.95192974 -0.09137886 57.90384533 -0.16210486 86.85589061 -0.20426132 C90.27900869 -0.20926375 93.70212649 -0.21444108 97.12524414 -0.21972656 C98.14740526 -0.22130043 98.14740526 -0.22130043 99.1902161 -0.22290608 C110.20367271 -0.24028038 121.21704524 -0.27180152 132.23045208 -0.30861118 C143.54306767 -0.34610371 154.85562118 -0.36795422 166.16830283 -0.37635398 C172.51749999 -0.38155889 178.86650688 -0.39375279 185.21564293 -0.42292023 C191.19838897 -0.4501804 197.18086733 -0.45842351 203.16366959 -0.45243073 C205.35291437 -0.45352622 207.54216862 -0.46141646 209.73135948 -0.4768219 C226.7825525 -0.59087105 239.9339144 0.25646846 252.7421875 12.69140625 C259.65474628 20.10263221 262.14972616 28.65562883 262.14717102 38.58216858 C262.15084771 39.34961645 262.1545244 40.11706432 262.1583125 40.90776819 C262.16933286 43.48156904 262.17319042 46.05532949 262.17700195 48.62915039 C262.18326796 50.47393929 262.18991488 52.31872692 262.19691467 54.16351318 C262.21794501 60.22488528 262.2283176 66.2862576 262.23828125 72.34765625 C262.24232949 74.43629914 262.24644644 76.5249419 262.25063133 78.61358452 C262.26968246 88.42893609 262.28391244 98.24428016 262.2922433 108.05964667 C262.30200922 119.37817636 262.32831229 130.69651015 262.36874419 142.01497084 C262.3989426 150.77014201 262.4137158 159.52525715 262.41702431 168.28047937 C262.41937096 173.50614169 262.42828105 178.7315947 262.45348549 183.957201 C262.4768357 188.87794105 262.48097153 193.79833503 262.47072411 198.71911621 C262.47023029 200.51896252 262.476505 202.31882626 262.49028015 204.11861992 C262.59630239 218.7999577 260.74321283 229.97951827 250.15234375 240.90625 C242.84161789 247.76641423 234.72599337 251.13042147 224.69120789 251.12025452 C223.11586525 251.12231651 223.11586525 251.12231651 221.50869751 251.12442017 C220.36718231 251.12082489 219.22566711 251.11722961 218.04956055 251.11352539 C216.83938766 251.11367142 215.62921478 251.11381744 214.38237 251.1139679 C211.07282968 251.11339145 207.76335207 251.10838317 204.45382285 251.10139394 C200.99182556 251.09513404 197.52982739 251.09455451 194.06782532 251.09336853 C187.51602985 251.09026299 180.96425112 251.08206007 174.41246301 251.07201904 C166.95179 251.06083378 159.49111618 251.05534137 152.03043687 251.05032361 C136.68694824 251.03987681 121.34347628 251.02229242 106 251 C105.957279 249.33388095 105.95936168 247.66617115 106 246 C107.64482836 244.35517164 109.53829655 244.87183291 111.80517578 244.86869812 C112.84531326 244.86468994 113.88545074 244.86068176 114.95710754 244.85655212 C116.683769 244.8573452 116.683769 244.8573452 118.4453125 244.8581543 C119.65019821 244.85467987 120.85508392 244.85120544 122.09648132 244.84762573 C124.7243812 244.84025105 127.35223013 244.83458607 129.98013306 244.83133507 C134.1413387 244.82542999 138.30245855 244.80889155 142.46362305 244.78999329 C143.88822931 244.78365516 145.31283564 244.77732955 146.73744202 244.77101612 C147.45112505 244.76785031 148.16480808 244.7646845 148.90011787 244.76142275 C158.59013459 244.71936753 168.28011304 244.68640732 177.97021484 244.67407227 C184.50183345 244.66567227 191.03324131 244.64310456 197.56475449 244.6047166 C201.0197561 244.58500962 204.47444302 244.57253306 207.92950439 244.57755089 C211.79305196 244.58309283 215.65607208 244.55770444 219.51953125 244.5300293 C220.65444504 244.53663071 221.78935883 244.54323212 222.95866394 244.55003357 C232.62168159 244.43666613 240.00792162 241.79628958 247.140625 235.19140625 C254.03498901 227.06590581 256.11989044 218.15863529 256.13371277 207.76023865 C256.13597833 207.05374634 256.13824388 206.34725404 256.14057809 205.61935288 C256.14688295 203.26371514 256.14609098 200.90813545 256.14526367 198.55249023 C256.14825747 196.85843329 256.15166051 195.16437703 256.15544128 193.47032166 C256.16426586 188.87490566 256.16661883 184.2795083 256.16725707 179.68408465 C256.16796878 176.80847719 256.17010546 173.93287443 256.17275429 171.05726814 C256.18200464 161.01172715 256.18608982 150.96619941 256.18530273 140.9206543 C256.18470295 131.57995934 256.19523597 122.23932232 256.2110464 112.898642 C256.22416001 104.8627128 256.22948499 96.82680243 256.22884732 88.79086262 C256.22859334 83.99895094 256.2313892 79.2070907 256.24202538 74.41518974 C256.25177009 69.90159134 256.25174223 65.38809285 256.24450874 60.87449074 C256.24347057 59.22707344 256.2457796 57.57964972 256.2518692 55.93224335 C256.52123463 34.59331795 256.52123463 34.59331795 247.28125 15.96875 C236.18635997 5.23762686 221.99899047 6.41748083 207.63793945 6.45410156 C205.37032871 6.44535837 203.10272413 6.43486999 200.83512878 6.42277527 C194.70369493 6.39498643 188.5724631 6.39150903 182.44097543 6.39249516 C176.02409642 6.38935996 169.60730759 6.36372907 163.19047546 6.34051514 C152.42816304 6.30459685 141.6659247 6.28246341 130.90356445 6.27099609 C119.82312598 6.25915182 108.74275456 6.23892475 97.66235352 6.20751953 C96.97823449 6.20558343 96.29411547 6.20364733 95.58926556 6.20165256 C92.15690575 6.19188735 88.72454644 6.18195836 85.29218733 6.17194796 C56.86149134 6.08924197 28.43079146 6.0354789 0 6 C0 4.02 0 2.04 0 0 Z " fill="#F18038" transform="translate(398,38)"/>
<path d="M0 0 C1.32199442 3.96598325 0.04637473 6.38834776 -1.3515625 10.1328125 C-1.60747162 10.84291473 -1.86338074 11.55301697 -2.12704468 12.28463745 C-2.95108265 14.56799183 -3.78709887 16.84670003 -4.625 19.125 C-5.707038 22.08360659 -6.78281154 25.04437985 -7.8515625 28.0078125 C-8.11575989 28.74002014 -8.37995728 29.47222778 -8.65216064 30.22662354 C-11.4395304 38.05872337 -13.72421987 46.00515904 -16 54 C-8.08 54 -0.16 54 8 54 C6.08305799 57.83388401 3.84077403 60.93153765 1.1875 64.25 C0.70829102 64.85481201 0.22908203 65.45962402 -0.26464844 66.08276367 C-4.61252723 71.55391429 -9.02560262 76.97233302 -13.44262695 82.38769531 C-16.71116477 86.39835076 -19.91995978 90.44555565 -23.07421875 94.546875 C-25.77394309 97.98587476 -28.54673496 101.3640283 -31.3125 104.75 C-37.01212625 111.73148643 -42.55342644 118.8198669 -48 126 C-49 124 -49 124 -48.03125 120.95336914 C-47.52864886 119.64427074 -47.0175645 118.33841122 -46.5 117.03515625 C-46.09288033 115.98301689 -46.09288033 115.98301689 -45.67753601 114.90962219 C-44.79184637 112.62453065 -43.89587376 110.34361561 -43 108.0625 C-42.09490441 105.73359586 -41.19250643 103.40365806 -40.29020691 101.07366943 C-39.6937759 99.53413995 -39.09645719 97.99495407 -38.49824524 96.45611572 C-35.21764079 88.01175688 -32.10168121 79.51159029 -29 71 C-36.92 71 -44.84 71 -53 71 C-51.14662354 66.36655885 -49.6322218 64.11218 -46.4375 60.4375 C-42.26173135 55.55675097 -38.35536219 50.54280422 -34.53125 45.37890625 C-31.50124623 41.30733869 -28.37291716 37.3129522 -25.25 33.3125 C-20.45505613 27.16414982 -15.67841537 21.00263633 -10.9375 14.8125 C-10.41381836 14.13034424 -9.89013672 13.44818848 -9.35058594 12.74536133 C-6.14677347 8.55524267 -3.04467285 4.30723444 0 0 Z " fill="#F38C2C" transform="translate(302,92)"/>
<path d="M0 0 C28.95192974 -0.09137886 57.90384533 -0.16210486 86.85589061 -0.20426132 C90.27900869 -0.20926375 93.70212649 -0.21444108 97.12524414 -0.21972656 C98.14740526 -0.22130043 98.14740526 -0.22130043 99.1902161 -0.22290608 C110.20367271 -0.24028038 121.21704524 -0.27180152 132.23045208 -0.30861118 C143.54306767 -0.34610371 154.85562118 -0.36795422 166.16830283 -0.37635398 C172.51749999 -0.38155889 178.86650688 -0.39375279 185.21564293 -0.42292023 C191.19838897 -0.4501804 197.18086733 -0.45842351 203.16366959 -0.45243073 C205.35291437 -0.45352622 207.54216862 -0.46141646 209.73135948 -0.4768219 C224.37983069 -0.57480013 237.36108603 -0.60589084 249.1953125 9.21875 C251.02489894 11.02457558 252.51887972 12.90251289 254 15 C252 14 250 13 248 12 C247.67 13.32 247.34 14.64 247 16 C246.52691406 15.60167969 246.05382812 15.20335937 245.56640625 14.79296875 C244.90511719 14.26316406 244.24382812 13.73335937 243.5625 13.1875 C242.60537109 12.40439453 242.60537109 12.40439453 241.62890625 11.60546875 C234.85020423 7.4657265 227.99529454 6.55769489 220.1860199 6.60127258 C219.23911303 6.59462576 218.29220616 6.58797893 217.31660515 6.58113068 C214.16595538 6.56258256 211.01568812 6.56510047 207.86499023 6.56762695 C205.59767626 6.55860481 203.33036717 6.54827649 201.06306458 6.53674316 C194.92328453 6.50920034 188.78359711 6.49989227 182.6437633 6.49388909 C176.22154248 6.48449842 169.79939065 6.45829442 163.37721252 6.43388367 C152.60296172 6.39519077 141.82874098 6.36682988 131.05444336 6.34643555 C119.96034073 6.32540742 108.86628244 6.29811638 97.7722168 6.26245117 C96.74525009 6.25915293 96.74525009 6.25915293 95.69753658 6.25578807 C92.26263557 6.24471796 88.82773496 6.23352523 85.39283454 6.22227156 C56.92859574 6.12917339 28.46433095 6.0577564 0 6 C0 4.02 0 2.04 0 0 Z " fill="#F5A640" transform="translate(398,38)"/>
<path d="M0 0 C15.51 0 31.02 0 47 0 C43.62470411 10.12588767 43.62470411 10.12588767 41.36328125 14.96875 C40.87182617 16.02723145 40.38037109 17.08571289 39.87402344 18.17626953 C39.10106934 19.82151611 39.10106934 19.82151611 38.3125 21.5 C37.78301758 22.63679199 37.25353516 23.77358398 36.70800781 24.94482422 C35.14398978 28.29906908 33.57313465 31.65002274 32 35 C31.55769043 35.94391602 31.11538086 36.88783203 30.65966797 37.86035156 C28.44882465 42.57787388 26.22971418 47.2913683 24 52 C21.00747365 50.50373683 20.61406645 48.29582409 19.27734375 45.26171875 C18.74262451 44.05749268 18.20790527 42.8532666 17.65698242 41.61254883 C17.08365251 40.30427331 16.51049502 38.99592223 15.9375 37.6875 C15.35389149 36.36650651 14.76966032 35.04578794 14.18481445 33.7253418 C13.30195306 31.73144218 12.41971437 29.73728638 11.54008484 27.74195862 C9.76448053 23.71514449 7.96539561 19.70017639 6.140625 15.6953125 C5.72176025 14.77532471 5.30289551 13.85533691 4.87133789 12.9074707 C4.09678084 11.20964293 3.32001259 9.51282174 2.54077148 7.81713867 C0 2.22141348 0 2.22141348 0 0 Z " fill="#F58D2C" transform="translate(405,105)"/>
<path d="M0 0 C44.55 0 89.1 0 135 0 C135.33 1.65 135.66 3.3 136 5 C134.30411438 6.69588562 132.15495214 6.12973982 129.83296204 6.13371277 C128.71276169 6.13797775 127.59256134 6.14224274 126.43841553 6.14663696 C125.19843811 6.14618378 123.95846069 6.14573059 122.6809082 6.14526367 C120.73467812 6.15030159 120.73467812 6.15030159 118.74913025 6.15544128 C115.17864786 6.16430408 111.6081894 6.16662045 108.03769708 6.16725707 C105.0583013 6.16820497 102.07891114 6.17188219 99.09951752 6.17542917 C92.06740008 6.18358361 85.03529545 6.18601263 78.00317383 6.18530273 C70.75110986 6.18470278 63.49912048 6.19523589 56.24707538 6.2110464 C50.02280557 6.22413233 43.79856009 6.22948614 37.57427663 6.22884732 C33.85618072 6.2285925 30.13815095 6.23143484 26.42006874 6.24202538 C22.26868243 6.25352582 18.1174623 6.24895307 13.96606445 6.24291992 C12.12128006 6.25134918 12.12128006 6.25134918 10.23922729 6.25994873 C9.10492783 6.25575424 7.97062836 6.25155975 6.80195618 6.24723816 C5.82062367 6.24778293 4.83929117 6.24832769 3.82822132 6.24888897 C0.64705535 5.96894019 -2.01683978 5.11363012 -5 4 C-4.0409375 3.8453125 -4.0409375 3.8453125 -3.0625 3.6875 C-2.381875 3.460625 -1.70125 3.23375 -1 3 C-0.67 2.01 -0.34 1.02 0 0 Z " fill="#F18642" transform="translate(49,283)"/>
<path d="M0 0 C4.40830916 2.16407904 7.12843553 4.42506462 9 9 C9.53218983 14.58799317 9.25015553 18.23310522 6 23 C1.89736682 26.71190621 -1.44085808 27.64935205 -6.8203125 27.38671875 C-11.3082357 26.59047431 -13.9903751 24.17789571 -16.875 20.8125 C-18.84782181 15.88044548 -18.88171372 11.08826934 -16.8125 6.1875 C-11.80193678 0.14026852 -7.72938571 -1.22629677 0 0 Z " fill="#F6A233" transform="translate(344,19)"/>
<path d="M0 0 C6 0 6 0 7.61157227 1.18994141 C8.00916748 1.73827637 8.4067627 2.28661133 8.81640625 2.8515625 C9.27080078 3.45613281 9.72519531 4.06070313 10.19335938 4.68359375 C10.64517578 5.32425781 11.09699219 5.96492187 11.5625 6.625 C12.47966645 7.86778 13.3976296 9.10997244 14.31640625 10.3515625 C14.71287354 10.90666504 15.10934082 11.46176758 15.51782227 12.03369141 C17.57851794 14.76748204 19.80835436 17.37002523 22 20 C22.33 13.4 22.66 6.8 23 0 C24.98 0 26.96 0 29 0 C29 10.56 29 21.12 29 32 C23 32 23 32 21.38842773 30.81005859 C20.99083252 30.26172363 20.5932373 29.71338867 20.18359375 29.1484375 C19.72919922 28.54386719 19.27480469 27.93929688 18.80664062 27.31640625 C18.12891602 26.35541016 18.12891602 26.35541016 17.4375 25.375 C16.52033355 24.13222 15.6023704 22.89002756 14.68359375 21.6484375 C14.28712646 21.09333496 13.89065918 20.53823242 13.48217773 19.96630859 C11.42148206 17.23251796 9.19164564 14.62997477 7 12 C6.67 18.6 6.34 25.2 6 32 C4.02 32 2.04 32 0 32 C0 21.44 0 10.88 0 0 Z " fill="#4A575B" transform="translate(253,242)"/>
<path d="M0 0 C3.17625 -0.0825 6.3525 -0.165 9.625 -0.25 C10.6145166 -0.28641602 11.6040332 -0.32283203 12.62353516 -0.36035156 C18.40954762 -0.43286678 21.5990505 0.15451015 26 4 C27.84880495 7.6976099 27.47516431 11.96427109 27 16 C25.125 19.125 25.125 19.125 23 21 C22.34 21 21.68 21 21 21 C21.75796875 22.04800781 21.75796875 22.04800781 22.53125 23.1171875 C23.50578125 24.48230469 23.50578125 24.48230469 24.5 25.875 C25.1496875 26.77992188 25.799375 27.68484375 26.46875 28.6171875 C28 31 28 31 28 33 C25.4375 33.5625 25.4375 33.5625 22 33 C20.359375 31.03125 20.359375 31.03125 18.6875 28.5625 C16.26877125 25.03134869 16.26877125 25.03134869 12.5546875 23.1796875 C9.80578342 22.86558312 9.80578342 22.86558312 6 23 C6 25.97 6 28.94 6 32 C4.02 32 2.04 32 0 32 C0 21.44 0 10.88 0 0 Z M6 5 C6 9.29 6 13.58 6 18 C12.68433222 18.32782739 12.68433222 18.32782739 19.125 16.9375 C21.3462308 15.02141106 21.3462308 15.02141106 21.5 11.5 C21.27970949 8.15033399 21.27970949 8.15033399 19.85546875 6.29296875 C17.15990459 4.41458614 15.05507893 4.70790068 11.8125 4.8125 C8.9353125 4.9053125 8.9353125 4.9053125 6 5 Z " fill="#434F53" transform="translate(357,242)"/>
<path d="M0 0 C7.92 0 15.84 0 24 0 C24 1.65 24 3.3 24 5 C18.06 5 12.12 5 6 5 C6 7.64 6 10.28 6 13 C11.28 13 16.56 13 22 13 C22 14.65 22 16.3 22 18 C16.72 18 11.44 18 6 18 C6.33 20.97 6.66 23.94 7 27 C12.94 27 18.88 27 25 27 C25 28.65 25 30.3 25 32 C22.08196048 32.97267984 20.18599867 33.12881796 17.1484375 33.1328125 C16.21515625 33.13410156 15.281875 33.13539063 14.3203125 33.13671875 C13.34835937 33.13285156 12.37640625 33.12898438 11.375 33.125 C10.3953125 33.12886719 9.415625 33.13273437 8.40625 33.13671875 C7.47554688 33.13542969 6.54484375 33.13414062 5.5859375 33.1328125 C4.30275635 33.13112061 4.30275635 33.13112061 2.99365234 33.12939453 C1 33 1 33 0 32 C-0.0883967 29.6243148 -0.11530305 27.27791326 -0.09765625 24.90234375 C-0.0962413 24.19348526 -0.09482635 23.48462677 -0.09336853 22.75428772 C-0.08775443 20.48198288 -0.07519963 18.20977525 -0.0625 15.9375 C-0.05748681 14.40039204 -0.05292359 12.86328255 -0.04882812 11.32617188 C-0.0386297 7.55071333 -0.01905732 3.77546596 0 0 Z " fill="#586468" transform="translate(308,242)"/>
<path d="M0 0 C3.08577893 1.7280362 4.0980655 2.44098884 5.125 5.75 C3.5625 6.9375 3.5625 6.9375 1.125 7.75 C-0.54344626 6.96484882 -2.21119397 6.17806166 -3.87109375 5.375 C-7.70898574 4.17799665 -11.26936254 5.18107991 -14.875 6.75 C-17.59610343 9.5535611 -18.05737848 11.96891098 -18.25 15.75 C-18.0885867 19.46952394 -17.34315229 21.85630422 -14.875 24.75 C-10.49449937 27.50345754 -6.74790899 26.57591678 -1.875 25.75 C-1.545 22.45 -1.215 19.15 -0.875 15.75 C1.105 15.75 3.085 15.75 5.125 15.75 C5.125 20.04 5.125 24.33 5.125 28.75 C-0.72685106 32.15471334 -5.09141783 33.74003632 -11.875 32.75 C-17.76534713 30.98289586 -20.38087955 28.58010768 -23.875 23.75 C-25.96805576 19.56388848 -25.29864608 14.30867052 -24.875 9.75 C-22.57870541 4.80413474 -19.56176135 2.44239482 -14.875 -0.25 C-9.80744917 -1.93918361 -4.96497553 -1.91120397 0 0 Z " fill="#4C575C" transform="translate(430.875,242.25)"/>
<path d="M0 0 C7.92 0 15.84 0 24 0 C24 1.65 24 3.3 24 5 C18.06 5 12.12 5 6 5 C6 7.64 6 10.28 6 13 C11.28 13 16.56 13 22 13 C22 14.65 22 16.3 22 18 C16.72 18 11.44 18 6 18 C6 21.3 6 24.6 6 28 C11.94 27.67 17.88 27.34 24 27 C24.33 28.65 24.66 30.3 25 32 C16.75 32 8.5 32 0 32 C0 21.44 0 10.88 0 0 Z " fill="#4A565A" transform="translate(204,242)"/>
<path d="M0 0 C2.7265625 -0.3984375 2.7265625 -0.3984375 6 0 C7.83044555 2.17327147 9.04766991 3.92692815 10.375 6.375 C10.72949219 6.97828125 11.08398438 7.5815625 11.44921875 8.203125 C14 12.63498431 14 12.63498431 14 15 C14.66 15 15.32 15 16 15 C16.27328125 14.28457031 16.5465625 13.56914062 16.828125 12.83203125 C18.7242969 8.24961583 20.86314465 3.86584285 24 0 C27.375 -0.625 27.375 -0.625 30 0 C28.69689726 3.75265106 26.85337774 6.85630684 24.67358398 10.16577148 C19.96653505 17.38857677 17.58796361 23.14945842 18 32 C16.02 32 14.04 32 12 32 C12.03222656 31.3915625 12.06445312 30.783125 12.09765625 30.15625 C11.97447826 20.84946818 7.68131575 14.43624626 2.99267578 6.73535156 C1.75472738 4.57122534 0.82969065 2.34852327 0 0 Z " fill="#4C585D" transform="translate(456,242)"/>
<path d="M0 0 C-6.93 3.465 -6.93 3.465 -14 7 C-8.39 7.66 -2.78 8.32 3 9 C3 9.66 3 10.32 3 11 C1.92878906 11.13277344 0.85757812 11.26554687 -0.24609375 11.40234375 C-1.64325769 11.5805056 -3.04039159 11.75890319 -4.4375 11.9375 C-5.14455078 12.02451172 -5.85160156 12.11152344 -6.58007812 12.20117188 C-10.08817968 12.38216191 -10.08817968 12.38216191 -13 14 C-6.07 16.97 -6.07 16.97 1 20 C1 20.66 1 21.32 1 22 C-5.6 20.68 -12.2 19.36 -19 18 C-19 13.05 -19 8.1 -19 3 C-16.586238 2.30048937 -14.16989766 1.61516081 -11.75 0.9375 C-11.06808594 0.73833984 -10.38617188 0.53917969 -9.68359375 0.33398438 C-5.8247525 -0.73375325 -3.98368098 -0.99592024 0 0 Z " fill="#F9B465" transform="translate(373,22)"/>
<path d="M0 0 C0 4.17871865 -2.27774089 6.21884624 -4.8125 9.3125 C-5.81532224 10.56102279 -6.81791945 11.80972636 -7.8203125 13.05859375 C-8.34141602 13.70296387 -8.86251953 14.34733398 -9.39941406 15.01123047 C-12.02615758 18.2750274 -14.60475344 21.57636262 -17.1875 24.875 C-18.11826246 26.06007425 -19.04923093 27.24498675 -19.98046875 28.4296875 C-20.64691406 29.27789062 -21.31335938 30.12609375 -22 31 C-23 29 -23 29 -22.3190918 26.67749023 C-21.94953369 25.73075439 -21.57997559 24.78401855 -21.19921875 23.80859375 C-20.79896484 22.78185547 -20.39871094 21.75511719 -19.98632812 20.69726562 C-19.55771484 19.62154297 -19.12910156 18.54582031 -18.6875 17.4375 C-18.27048828 16.35791016 -17.85347656 15.27832031 -17.42382812 14.16601562 C-14.25613992 6.12806996 -14.25613992 6.12806996 -12 5 C-12 5.99 -12 6.98 -12 8 C-11.01 7.34 -10.02 6.68 -9 6 C-7.68 6 -6.36 6 -5 6 C-5 5.01 -5 4.02 -5 3 C-2.5 1.3125 -2.5 1.3125 0 0 Z " fill="#EC5829" transform="translate(276,187)"/>
<path d="M0 0 C1.98 0 3.96 0 6 0 C6 4.29 6 8.58 6 13 C0.47218885 16.21618103 -4.50968267 18.5730097 -11 17 C-13 14.625 -13 14.625 -14 12 C-14.33 11.34 -14.66 10.68 -15 10 C-14.32453125 10.08378906 -13.6490625 10.16757812 -12.953125 10.25390625 C-11.61507813 10.40666016 -11.61507813 10.40666016 -10.25 10.5625 C-8.92742187 10.71912109 -8.92742187 10.71912109 -7.578125 10.87890625 C-4.73089017 11.13657071 -4.73089017 11.13657071 -1 10 C-0.67 6.7 -0.34 3.4 0 0 Z " fill="#546166" transform="translate(430,258)"/>
<path d="M0 0 C4.405288 1.17474347 6.66520151 2.03498718 9 6 C9.36328125 8.5078125 9.36328125 8.5078125 9.3125 11.125 C9.30863281 11.99382812 9.30476563 12.86265625 9.30078125 13.7578125 C9 16 9 16 7 18 C5.68 18 4.36 18 3 18 C2.01 18.33 1.02 18.66 0 19 C-0.66 18.34 -1.32 17.68 -2 17 C-0.68 16.34 0.64 15.68 2 15 C2.16677282 11.58343976 2.16677282 11.58343976 2 8 C-1.57386064 4.42613936 -7.14791553 5.30970752 -12 5 C-12 9.29 -12 13.58 -12 18 C-12.33 18 -12.66 18 -13 18 C-13 13.38 -13 8.76 -13 4 C-7.06 3.505 -7.06 3.505 -1 3 C-0.67 2.01 -0.34 1.02 0 0 Z " fill="#556063" transform="translate(375,242)"/>
<path d="M0 0 C1.52448631 2.9826906 2.93940067 5.818202 4 9 C1.54732365 10.53068488 -0.91133894 12.04968623 -3.375 13.5625 C-4.07367188 14.00013672 -4.77234375 14.43777344 -5.4921875 14.88867188 C-7.29185903 15.98750978 -9.14322343 17.00067867 -11 18 C-11.66 17.67 -12.32 17.34 -13 17 C-12.278125 16.28972656 -11.55625 15.57945313 -10.8125 14.84765625 C-9.884375 13.92855469 -8.95625 13.00945313 -8 12.0625 C-7.071875 11.14597656 -6.14375 10.22945312 -5.1875 9.28515625 C-2.88474951 7.40683762 -2.88474951 7.40683762 -3 6 C-3.74765625 6.15597656 -4.4953125 6.31195313 -5.265625 6.47265625 C-6.25046875 6.66730469 -7.2353125 6.86195312 -8.25 7.0625 C-9.71179688 7.35833984 -9.71179688 7.35833984 -11.203125 7.66015625 C-13.868119 7.98397535 -15.48871723 7.85503199 -18 7 C-15.8967433 6.01888025 -13.79236311 5.04016866 -11.6875 4.0625 C-10.51574219 3.51722656 -9.34398437 2.97195312 -8.13671875 2.41015625 C-2.77562327 0 -2.77562327 0 0 0 Z " fill="#F4AB54" transform="translate(324,35)"/>
<path d="M0 0 C2.97 0.33 5.94 0.66 9 1 C10.06673434 5.20277287 9.98980591 8.93650077 9.6875 13.25 C9.56955078 15.11398438 9.56955078 15.11398438 9.44921875 17.015625 C9.30097656 18.00046875 9.15273438 18.9853125 9 20 C8.34 20.33 7.68 20.66 7 21 C6.01 15.72 5.02 10.44 4 5 C2.02 9.29 0.04 13.58 -2 18 C-2.33 18 -2.66 18 -3 18 C-2.22095672 5.33029613 -2.22095672 5.33029613 0 0 Z " fill="#F6A95B" transform="translate(332,47)"/>
<path d="M0 0 C0.66 0 1.32 0 2 0 C3.03516348 2.24435445 4.05314977 4.49406867 5.0625 6.75 C5.35705078 7.38421875 5.65160156 8.0184375 5.95507812 8.671875 C8.07081639 13.45095438 8.07081639 13.45095438 7.68359375 16.453125 C7.45800781 16.96359375 7.23242188 17.4740625 7 18 C4.69 18.66 2.38 19.32 0 20 C-1.1063219 18.43902526 -2.20995785 16.87614673 -3.3125 15.3125 C-3.92738281 14.44238281 -4.54226563 13.57226562 -5.17578125 12.67578125 C-8.61488217 7.63127561 -8.61488217 7.63127561 -10 5 C-9.67 4.34 -9.34 3.68 -9 3 C-5 7 -1 11 3 15 C2.7834375 14.16855469 2.566875 13.33710938 2.34375 12.48046875 C2.0653125 11.39378906 1.786875 10.30710937 1.5 9.1875 C1.2215625 8.10855469 0.943125 7.02960937 0.65625 5.91796875 C0 3 0 3 0 0 Z " fill="#F3B95A" transform="translate(328,0)"/>
<path d="M0 0 C5.28 0 10.56 0 16 0 C16 1.65 16 3.3 16 5 C10.72 5 5.44 5 0 5 C0 8.3 0 11.6 0 15 C-0.33 15 -0.66 15 -1 15 C-1.02715383 13.25008666 -1.04646551 11.50005055 -1.0625 9.75 C-1.07410156 8.77546875 -1.08570313 7.8009375 -1.09765625 6.796875 C-1 4 -1 4 0 0 Z " fill="#556166" transform="translate(210,255)"/>
<path d="M0 0 C1.1673418 3.5020254 0.79056598 4.29616038 -0.43359375 7.66796875 C-0.9121582 9.00698242 -0.9121582 9.00698242 -1.40039062 10.37304688 C-1.91375977 11.76620117 -1.91375977 11.76620117 -2.4375 13.1875 C-2.77587891 14.12787109 -3.11425781 15.06824219 -3.46289062 16.03710938 C-4.30048809 18.36114742 -5.14645283 20.68178235 -6 23 C-6.33 23 -6.66 23 -7 23 C-6.835 21.9275 -6.67 20.855 -6.5 19.75 C-5.91189085 15.96971248 -5.91189085 15.96971248 -6 12 C-9.63 16.62 -13.26 21.24 -17 26 C-17.66 25.67 -18.32 25.34 -19 25 C-18.60208252 24.49138428 -18.20416504 23.98276855 -17.79418945 23.45874023 C-15.96545403 21.11949944 -14.13896515 18.77851377 -12.3125 16.4375 C-11.68666016 15.63763672 -11.06082031 14.83777344 -10.41601562 14.01367188 C-6.83102669 9.41512586 -3.35029262 4.77240535 0 0 Z " fill="#F3B83D" transform="translate(302,92)"/>
<path d="M0 0 C-6.93 3.465 -6.93 3.465 -14 7 C-11.03 7.33 -8.06 7.66 -5 8 C-5 8.33 -5 8.66 -5 9 C-9.29 9 -13.58 9 -18 9 C-18.33 7.02 -18.66 5.04 -19 3 C-16.586238 2.30048937 -14.16989766 1.61516081 -11.75 0.9375 C-11.06808594 0.73833984 -10.38617188 0.53917969 -9.68359375 0.33398438 C-5.8247525 -0.73375325 -3.98368098 -0.99592024 0 0 Z " fill="#F9BB63" transform="translate(373,22)"/>
<path d="M0 0 C0.33 0.99 0.66 1.98 1 3 C1.33 2.34 1.66 1.68 2 1 C2.66 1 3.32 1 4 1 C5.2890625 2.4609375 5.2890625 2.4609375 6.625 4.375 C7.07101562 5.00148438 7.51703125 5.62796875 7.9765625 6.2734375 C9 8 9 8 9 10 C6.4375 10.5625 6.4375 10.5625 3 10 C1.359375 8.03125 1.359375 8.03125 -0.3125 5.5625 C-2.73122875 2.03134869 -2.73122875 2.03134869 -6.4453125 0.1796875 C-8.66562957 -0.03607999 -10.77423533 -0.12617714 -13 0 C-13 -0.33 -13 -0.66 -13 -1 C-11.58566794 -1.2236337 -10.16832382 -1.42826476 -8.75 -1.625 C-7.56664062 -1.79902344 -7.56664062 -1.79902344 -6.359375 -1.9765625 C-3.61793285 -2.00379537 -2.25229848 -1.54471799 0 0 Z " fill="#495A5D" transform="translate(376,265)"/>
<path d="M0 0 C5.28 0 10.56 0 16 0 C16 1.32 16 2.64 16 4 C10.39 4 4.78 4 -1 4 C-0.67 2.68 -0.34 1.36 0 0 Z " fill="#455156" transform="translate(314,256)"/>
<path d="M0 0 C6.17398461 3.15267299 10.94783982 7.28006804 16 12 C13 13 13 13 9.64453125 11.34765625 C8.36110983 10.59622298 7.08393866 9.83403499 5.8125 9.0625 C4.83120117 8.48338867 4.83120117 8.48338867 3.83007812 7.89257812 C2.21464684 6.93746912 0.60659475 5.96989934 -1 5 C-1 1 -1 1 0 0 Z " fill="#F7A250" transform="translate(353,40)"/>
<path d="M0 0 C0 1.32 0 2.64 0 4 C-13.6332574 4.18451025 -13.6332574 4.18451025 -20 3 C-20 2.34 -20 1.68 -20 1 C-13.34362157 -0.23839599 -6.7528064 -0.09139136 0 0 Z " fill="#F5B353" transform="translate(324,30)"/>
<path d="M0 0 C0 3 0 3 -2.01171875 5.19140625 C-2.89472656 5.97386719 -3.77773438 6.75632812 -4.6875 7.5625 C-5.99267578 8.74005859 -5.99267578 8.74005859 -7.32421875 9.94140625 C-9.85576614 11.88903468 -11.98881924 12.99627308 -15 14 C-15.33 12.68 -15.66 11.36 -16 10 C-11.22486164 5.71884147 -5.63843769 2.96240159 0 0 Z " fill="#F7B34E" transform="translate(367,11)"/>
<path d="M0 0 C0 4.09459203 -1.96927276 6.76750835 -4 10.1875 C-4.3815625 10.84169922 -4.763125 11.49589844 -5.15625 12.16992188 C-6.09838932 13.78333545 -7.04844266 15.39212298 -8 17 C-9.32 17 -10.64 17 -12 17 C-12.33 16.34 -12.66 15.68 -13 15 C-4.738041 4.44191344 -4.738041 4.44191344 0 0 Z " fill="#F5B348" transform="translate(360,3)"/>
<path d="M0 0 C4.01653974 1.33884658 5.08195419 3.90257048 7.125 7.375 C7.48464844 7.96539062 7.84429687 8.55578125 8.21484375 9.1640625 C9.77138191 11.75246303 11.04185129 14.12555386 12 17 C5.6206279 14.26598339 1.18816662 8.00125481 -2 2 C-1.34 1.34 -0.68 0.68 0 0 Z " fill="#F8A652" transform="translate(349,44)"/>
<path d="M0 0 C0.66 0 1.32 0 2 0 C3.5056904 5.80766296 4.21824777 10.9981863 4 17 C2.35 17 0.7 17 -1 17 C-0.67 11.39 -0.34 5.78 0 0 Z " fill="#F3B651" transform="translate(338,0)"/>
<path d="M0 0 C1.65 0 3.3 0 5 0 C5 4.29 5 8.58 5 13 C3.35 12.67 1.7 12.34 0 12 C0 8.04 0 4.08 0 0 Z " fill="#556065" transform="translate(431,258)"/>
<path d="M0 0 C1.32 0.66 2.64 1.32 4 2 C0.59008792 7.54110713 -3.61420043 12.20968493 -8 17 C-8.33 16.34 -8.66 15.68 -9 15 C-7.96860223 12.7539762 -6.89276713 10.64943191 -5.6875 8.5 C-5.36587891 7.90574219 -5.04425781 7.31148437 -4.71289062 6.69921875 C-3.31943022 4.16409367 -2.05550458 2.05550458 0 0 Z " fill="#F5A554" transform="translate(328,44)"/>
<path d="M0 0 C2.23019727 0.28367868 4.45913454 0.57727388 6.6875 0.875 C7.92886719 1.03742187 9.17023438 1.19984375 10.44921875 1.3671875 C13.57795295 1.92478369 16.12148102 2.69008123 19 4 C18.67 5.32 18.34 6.64 18 8 C13.3110507 7.44380331 9.80075733 6.11817327 5.625 3.9375 C4.56539063 3.38964844 3.50578125 2.84179688 2.4140625 2.27734375 C1.61742187 1.85582031 0.82078125 1.43429688 0 1 C0 0.67 0 0.34 0 0 Z " fill="#F4B758" transform="translate(306,21)"/>
<path d="M0 0 C6.26418531 1.48362284 10.91513505 5.24162156 16 9 C15.34 10.32 14.68 11.64 14 13 C8.52964787 9.20962911 4.10037573 5.24972347 0 0 Z " fill="#F2B550" transform="translate(312,12)"/>
<path d="M0 0 C1.32 0 2.64 0 4 0 C5.32 5.94 6.64 11.88 8 18 C4.88045805 14.88045805 3.58003224 12.41293412 1.75 8.4375 C1.20859375 7.28121094 0.6671875 6.12492187 0.109375 4.93359375 C-0.25671875 3.96550781 -0.6228125 2.99742188 -1 2 C-0.67 1.34 -0.34 0.68 0 0 Z " fill="#F7A95E" transform="translate(343,47)"/>
<path d="M0 0 C6.93 0 13.86 0 21 0 C21 0.66 21 1.32 21 2 C14.03220597 3.32719886 7.07011089 3.08825381 0 3 C0 2.01 0 1.02 0 0 Z " fill="#F9AA49" transform="translate(355,31)"/>
<path d="M0 0 C0.33 0 0.66 0 1 0 C0.61020794 6.55925943 -0.42113193 11.94526627 -3 18 C-3.99 18 -4.98 18 -6 18 C-5.55397709 11.30965634 -2.92654458 5.97187878 0 0 Z " fill="#F4B346" transform="translate(349,0)"/>
<path d="M0 0 C0.66 0.33 1.32 0.66 2 1 C1.57847656 1.55429688 1.15695312 2.10859375 0.72265625 2.6796875 C0.17480469 3.40414062 -0.37304688 4.12859375 -0.9375 4.875 C-1.48277344 5.59429687 -2.02804688 6.31359375 -2.58984375 7.0546875 C-4.03964624 8.94357079 -4.03964624 8.94357079 -5 11 C1.93 11.33 8.86 11.66 16 12 C15.67 12.66 15.34 13.32 15 14 C7.08 13.67 -0.84 13.34 -9 13 C-7.29713213 8.74283033 -6.31291166 6.89744052 -3.375 3.6875 C-2.74335938 2.99011719 -2.11171875 2.29273438 -1.4609375 1.57421875 C-0.97882813 1.05472656 -0.49671875 0.53523437 0 0 Z " fill="#F2793D" transform="translate(258,150)"/>
<path d="M0 0 C0.66 0.66 1.32 1.32 2 2 C0.02 6.29 -1.96 10.58 -4 15 C-7.31038651 13.34480674 -7.78867011 10.34557779 -9 7 C-8.67 6.01 -8.34 5.02 -8 4 C-6.68 5.65 -5.36 7.3 -4 9 C-2.68 6.03 -1.36 3.06 0 0 Z " fill="#F0653D" transform="translate(433,142)"/>
<path d="M0 0 C0.33 0.66 0.66 1.32 1 2 C3.02463255 2.65213292 3.02463255 2.65213292 5 3 C-1.15034169 11.44646925 -1.15034169 11.44646925 -5 15 C-3.33333333 10 -1.66666667 5 0 0 Z " fill="#E7643E" transform="translate(258,203)"/>
<path d="M0 0 C1.32 0 2.64 0 4 0 C3.43174347 5.54050113 1.37113483 10.03715966 -1 15 C-1.33 15 -1.66 15 -2 15 C-1.85879286 13.06215735 -1.71187127 11.12473045 -1.5625 9.1875 C-1.48128906 8.10855469 -1.40007812 7.02960937 -1.31640625 5.91796875 C-1 3 -1 3 0 0 Z " fill="#F6A554" transform="translate(331,50)"/>
<path d="M0 0 C0.99 0.33 1.98 0.66 3 1 C-0.96 4.96 -4.92 8.92 -9 13 C-9.66 12.67 -10.32 12.34 -11 12 C-3.70159453 3.55353075 -3.70159453 3.55353075 0 0 Z " fill="#47565A" transform="translate(228,103)"/>
<path d="M0 0 C0.66 0 1.32 0 2 0 C2.67119549 1.4562545 3.33681807 2.91507867 4 4.375 C4.556875 5.59316406 4.556875 5.59316406 5.125 6.8359375 C6 9 6 9 6 11 C5.34 11 4.68 11 4 11 C3.67 12.32 3.34 13.64 3 15 C2.49564306 13.0636296 1.99666126 11.12585854 1.5 9.1875 C1.2215625 8.10855469 0.943125 7.02960937 0.65625 5.91796875 C0 3 0 3 0 0 Z " fill="#F2BB64" transform="translate(328,0)"/>
<path d="M0 0 C3.04049801 3.64859761 4.96518762 7.7444533 7 12 C3.25532624 10.27350831 1.22760637 8.54766941 -1 5 C-0.75 2.1875 -0.75 2.1875 0 0 Z " fill="#F8AD63" transform="translate(354,49)"/>
<path d="M0 0 C0.33 0 0.66 0 1 0 C1 2.64 1 5.28 1 8 C-0.65 8 -2.3 8 -4 8 C-4 6.02 -4 4.04 -4 2 C-3.34 1.67 -2.68 1.34 -2 1 C-1.67 1.66 -1.34 2.32 -1 3 C-0.67 2.01 -0.34 1.02 0 0 Z " fill="#F5C36B" transform="translate(341,9)"/>
<path d="M0 0 C0.66 0.33 1.32 0.66 2 1 C1.06558465 2.27310312 0.12732889 3.543388 -0.8125 4.8125 C-1.33457031 5.52019531 -1.85664063 6.22789062 -2.39453125 6.95703125 C-3.83128877 8.78531393 -5.31815763 10.39896688 -7 12 C-7.33 11.34 -7.66 10.68 -8 10 C-5.36 6.7 -2.72 3.4 0 0 Z " fill="#F6792F" transform="translate(258,150)"/>
<path d="M0 0 C3.465 1.98 3.465 1.98 7 4 C6.67 4.99 6.34 5.98 6 7 C4.02 6.34 2.04 5.68 0 5 C0 3.35 0 1.7 0 0 Z " fill="#455459" transform="translate(412,267)"/>
<path d="M0 0 C2.97 0.33 5.94 0.66 9 1 C8.01 1.33 7.02 1.66 6 2 C6 3.98 6 5.96 6 8 C4.5 6.625 4.5 6.625 3 5 C3 4.34 3 3.68 3 3 C2.01 3 1.02 3 0 3 C0 2.01 0 1.02 0 0 Z " fill="#F7BA7B" transform="translate(332,47)"/>
<path d="M0 0 C0.33 0.99 0.66 1.98 1 3 C-5.96428571 5.27678571 -5.96428571 5.27678571 -10 4 C-8.71086513 3.32845067 -7.41859796 2.66291141 -6.125 2 C-5.40570313 1.62875 -4.68640625 1.2575 -3.9453125 0.875 C-2 0 -2 0 0 0 Z " fill="#F8B25E" transform="translate(316,38)"/>
<path d="M0 0 C1.98 0 3.96 0 6 0 C6.33 1.65 6.66 3.3 7 5 C6.01 5 5.02 5 4 5 C3.34 4.34 2.68 3.68 2 3 C1.34 2.67 0.68 2.34 0 2 C0 1.34 0 0.68 0 0 Z " fill="#444F53" transform="translate(456,242)"/>
<path d="M0 0 C2.31 0 4.62 0 7 0 C7 0.99 7 1.98 7 3 C5.02 3.33 3.04 3.66 1 4 C0.67 2.68 0.34 1.36 0 0 Z " fill="#F1A33E" transform="translate(316,37)"/>
<path d="M0 0 C0 0.99 0 1.98 0 3 C-1.53125 4.38671875 -1.53125 4.38671875 -3.5 5.6875 C-4.47453125 6.34298828 -4.47453125 6.34298828 -5.46875 7.01171875 C-5.9740625 7.33785156 -6.479375 7.66398437 -7 8 C-7 7.34 -7 6.68 -7 6 C-7.66 5.67 -8.32 5.34 -9 5 C-6.03 3.35 -3.06 1.7 0 0 Z " fill="#F7B96A" transform="translate(367,11)"/>
<path d="M0 0 C0.66 0.66 1.32 1.32 2 2 C0.68 4.97 -0.64 7.94 -2 11 C-2.66 10.34 -3.32 9.68 -4 9 C-2.68 6.03 -1.36 3.06 0 0 Z " fill="#EE7043" transform="translate(433,142)"/>
<path d="M0 0 C0.33 0 0.66 0 1 0 C1.66 3.63 2.32 7.26 3 11 C-0.10551666 7.89448334 -0.81323934 6.10801767 -2 2 C-1.34 1.34 -0.68 0.68 0 0 Z " fill="#F5AA66" transform="translate(348,54)"/>
<path d="M0 0 C2.64 1.98 5.28 3.96 8 6 C5 7 5 7 3.17578125 6.22265625 C1.45052083 5.1484375 -0.27473958 4.07421875 -2 3 C-1.34 2.67 -0.68 2.34 0 2 C0 1.34 0 0.68 0 0 Z " fill="#F7AD6D" transform="translate(361,46)"/>
<path d="M0 0 C0.33 0 0.66 0 1 0 C0.67 3.3 0.34 6.6 0 10 C-0.99 10 -1.98 10 -3 10 C-3.33 9.34 -3.66 8.68 -4 8 C-3.22265625 6.0546875 -3.22265625 6.0546875 -2.0625 3.875 C-1.49208984 2.78832031 -1.49208984 2.78832031 -0.91015625 1.6796875 C-0.60980469 1.12539063 -0.30945313 0.57109375 0 0 Z " fill="#F2BF6F" transform="translate(349,0)"/>
<path d="M0 0 C0 0.99 0 1.98 0 3 C-0.56203125 2.68289063 -1.1240625 2.36578125 -1.703125 2.0390625 C-4.15196317 0.93125475 -6.08387855 0.61024601 -8.75 0.375 C-9.54921875 0.30023438 -10.3484375 0.22546875 -11.171875 0.1484375 C-11.77515625 0.09945313 -12.3784375 0.05046875 -13 0 C-13 -0.33 -13 -0.66 -13 -1 C-11.58566794 -1.2236337 -10.16832382 -1.42826476 -8.75 -1.625 C-7.56664062 -1.79902344 -7.56664062 -1.79902344 -6.359375 -1.9765625 C-3.67847541 -2.00319395 -2.27305911 -1.36592084 0 0 Z " fill="#697174" transform="translate(376,265)"/>
<path d="M0 0 C0.99 0 1.98 0 3 0 C3.33 1.98 3.66 3.96 4 6 C2.68 6 1.36 6 0 6 C0 4.02 0 2.04 0 0 Z " fill="#F1AC37" transform="translate(332,11)"/>
<path d="M0 0 C0 3.69418201 -1.28179295 5.77836178 -3 9 C-4.32 8.34 -5.64 7.68 -7 7 C-4.69 4.69 -2.38 2.38 0 0 Z " fill="#F5C16E" transform="translate(360,3)"/>
<path d="M0 0 C1.9375 0.3125 1.9375 0.3125 4 1 C4.33 1.99 4.66 2.98 5 4 C3.02 4 1.04 4 -1 4 C-0.67 2.68 -0.34 1.36 0 0 Z " fill="#657273" transform="translate(380,271)"/>
<path d="M0 0 C1.65 0 3.3 0 5 0 C4.67 1.32 4.34 2.64 4 4 C2.68 4 1.36 4 0 4 C0 2.68 0 1.36 0 0 Z " fill="#F36E23" transform="translate(505,284)"/>
<path d="M0 0 C1.32 0 2.64 0 4 0 C2.66666667 2.66666667 1.33333333 5.33333333 0 8 C0 5.36 0 2.72 0 0 Z " fill="#3D4B51" transform="translate(431,258)"/>
<path d="M0 0 C0.66 0 1.32 0 2 0 C1.64950425 3.24208567 1.43778819 4.61527704 -1.0625 6.8125 C-1.701875 7.204375 -2.34125 7.59625 -3 8 C-1.125 2.25 -1.125 2.25 0 0 Z " fill="#F8A95F" transform="translate(322,53)"/>
<path d="M0 0 C0.99 0 1.98 0 3 0 C3 1.65 3 3.3 3 5 C2.01 5.33 1.02 5.66 0 6 C0 4.02 0 2.04 0 0 Z " fill="#F39642" transform="translate(345,50)"/>
<path d="M0 0 C1.5625 1.1875 1.5625 1.1875 3 3 C2.6875 5.6875 2.6875 5.6875 2 8 C1.34 7.67 0.68 7.34 0 7 C0 4.69 0 2.38 0 0 Z " fill="#F69B3D" transform="translate(351,45)"/>
<path d="" fill="#FF7F7F" transform="translate(0,0)"/>
<path d="" fill="#FFDF9F" transform="translate(0,0)"/>
</svg>
